<?xml version="1.0" encoding="utf-8"?>
<!-- Generator: Adobe Illustrator 19.0.0, SVG Export Plug-In . SVG Version: 6.00 Build 0)  -->
<svg version="1.1" id="Layer_1" xmlns="http://www.w3.org/2000/svg" xmlns:xlink="http://www.w3.org/1999/xlink" x="0px" y="0px"
	 width="561.9px" height="200.7px" viewBox="15.2 308.7 561.9 200.7" style="enable-background:new 15.2 308.7 561.9 200.7;"
	 xml:space="preserve">
<style type="text/css">
	.st0{fill:#333333;}
</style>
<path id="XMLID_4_" class="st0" d="M149,435.7h23.9l-6.5,31.3h-23.9l-8.8,42.4H92.9l9-42.4H15.2l5.7-27.7L130.5,310h45.3L149,435.7z
	 M125.6,355.4c-1.3,2.1-2.8,4.5-4.5,7.2c-1.7,2.6-3.7,5.4-6,8.3l-53.5,64.9h47l13.5-61.3c0.7-3.2,1.5-6.6,2.2-9.9
	c0.7-3.4,1.5-6.4,2.2-9.1h-0.9V355.4z"/>
<path id="XMLID_7_" class="st0" d="M550.3,435.7h23.9l-6.5,31.3h-23.9l-8.8,42.4h-40.7l9-42.4h-86.8l5.7-27.7L531.8,310h45.3
	L550.3,435.7z M526.9,355.4c-1.3,2.1-2.8,4.5-4.5,7.2c-1.7,2.6-3.7,5.4-6,8.3l-53.5,64.9h47l13.5-61.3c0.7-3.2,1.5-6.6,2.2-9.9
	c0.7-3.4,1.5-6.4,2.2-9.1h-0.9V355.4z"/>
<g id="XMLID_1_">
	<g id="XMLID_28_">
		<path id="XMLID_29_" class="st0" d="M396.2,393c0,0-14.9,16.3-40.6,16.3c-34.5,0-58.7-28-58.7-58.7c0-25.5,16.3-40.6,16.3-40.6
			c-5.3-0.9-10.8-1.3-16.3-1.3c-55.6,0-100.7,45.1-100.7,100.7S241.2,510,296.8,510s100.7-45.1,100.7-100.7
			C397.5,403.7,397,398.3,396.2,393z"/>
	</g>
</g>
</svg>
